<svg width="202" height="278" viewBox="0 0 202 278" fill="none" xmlns="http://www.w3.org/2000/svg">
<path d="M0 71.5C0 55.7599 12.7599 43 28.5 43V43C44.2401 43 57 55.7599 57 71.5V249.5C57 265.24 44.2401 278 28.5 278V278C12.7599 278 0 265.24 0 249.5V71.5Z" fill="#8E51FF"/>
<path d="M145 71.5C145 55.7599 157.76 43 173.5 43V43C189.24 43 202 55.7599 202 71.5V249.5C202 265.24 189.24 278 173.5 278V278C157.76 278 145 265.24 145 249.5V71.5Z" fill="#8E51FF"/>
<path d="M72 28.5C72 12.7599 84.7599 0 100.5 0V0C116.24 0 129 12.7599 129 28.5V206.5C129 222.24 116.24 235 100.5 235V235C84.7599 235 72 222.24 72 206.5V28.5Z" fill="#8E51FF"/>
</svg>
